<svg width="41" height="48" viewBox="0 0 41 48" fill="none" xmlns="http://www.w3.org/2000/svg">
<path d="M30.2211 40.5093C28.2184 42.497 25.7706 44.574 22.811 46.7403C21.3869 47.7676 19.4732 47.7676 18.049 46.7403C15.1117 44.5963 12.6862 42.497 10.7057 40.5316L7.67939 37.2263C5.76568 34.926 4.43053 32.8266 3.45142 31.04C-0.286988 24.1166 0.959147 16.769 0.959147 16.769C2.42781 7.27732 10.7057 -0.00333937 20.5413 0.0636606C26.9277 0.108327 32.5799 3.21266 36.1403 7.99199L27.7733 13.62C25.9041 11.3643 23.0336 9.97965 19.8515 10.1583C14.9559 10.4263 11.0173 14.4463 10.817 19.3596C10.5945 24.8536 14.9559 29.3873 20.4078 29.3873C23.3674 29.3873 26.0154 28.0473 27.7733 25.9256C28.1739 25.4343 28.5299 24.9206 28.8415 24.3623H25.5036L20.4078 19.985L24.9918 15.63H39.5894C39.7897 16.5456 39.9232 17.4613 39.9899 18.3993C39.9899 18.3993 40.3237 23.4913 38.8996 27.4443C38.1875 29.7223 36.6521 33.1393 33.2474 37.2263L30.2211 40.5093Z" fill="url(#paint0_linear)"/>
<defs>
<linearGradient id="paint0_linear" x1="0.780171" y1="23.7709" x2="40.033" y2="23.7709" gradientUnits="userSpaceOnUse">
<stop stop-color="#00BBFE"/>
<stop offset="1" stop-color="#0B66BF"/>
</linearGradient>
</defs>
</svg>
